<svg width="166" height="160" viewBox="0 0 166 160" fill="none" xmlns="http://www.w3.org/2000/svg">
<path fill-rule="evenodd" clip-rule="evenodd" d="M85.7852 0.0360206C101.496 -0.682995 115.271 9.49381 128.538 18.7928C142.692 28.7146 159.881 37.6645 164.714 55.3621C169.527 72.985 159.777 90.8775 152.791 107.595C146.594 122.426 138.989 136.503 126.876 145.912C114.885 155.225 100.348 161.615 85.7852 159.641C71.9985 157.773 63.7442 142.784 51.4371 135.689C35.8671 126.713 13.2706 129.457 4.4181 112.735C-4.44637 95.9896 1.49371 73.5912 9.39468 56.2707C16.6576 40.3489 32.0889 32.492 45.5382 22.5914C58.3669 13.1476 70.3688 0.741563 85.7852 0.0360206Z" fill="#608AF5"/>
<path fill-rule="evenodd" clip-rule="evenodd" d="M42 105.78V54.0014H67.3603C70.1052 53.9691 72.8264 54.515 75.3478 55.6038C77.293 56.402 78.9874 57.7117 80.2526 59.395C81.5178 61.0783 82.3068 63.0728 82.5366 65.1683C82.9254 67.5352 82.7195 69.962 81.9375 72.229C81.0708 74.3906 79.4586 76.1678 77.3946 77.2366L76.3962 77.7874H76.8455C78.7255 78.4831 80.3846 79.6729 81.6493 81.2321C82.9139 82.7914 83.7376 84.6629 84.0342 86.6508C84.7381 90.0356 84.299 93.5592 82.7862 96.666C81.7765 98.8497 80.2381 100.745 78.311 102.18C76.3839 103.614 74.1296 104.542 71.7534 104.878C69.5763 105.248 67.3719 105.432 65.1637 105.429H42V105.78ZM53.9313 96.7662H65.0639C66.1706 96.7505 67.2734 96.6331 68.3587 96.4156C69.5819 96.2658 70.7255 95.7286 71.6233 94.8821C72.5211 94.0355 73.1263 92.9238 73.3509 91.7085C73.4836 90.7449 73.4836 89.7676 73.3509 88.8041C73.3107 87.6788 72.9245 86.5935 72.2453 85.697C71.566 84.8005 70.627 84.1367 69.5569 83.7965C68.3545 83.3687 67.0885 83.1486 65.8127 83.1455H53.9313V96.7662ZM53.9313 74.3822H65.1637C66.8937 74.4423 68.6108 74.0634 70.1559 73.2806C70.6862 73.0107 71.1524 72.6296 71.5228 72.163C71.8932 71.6964 72.1591 71.1553 72.3026 70.5765C72.507 69.5517 72.507 68.4965 72.3026 67.4718C72.2316 66.5617 71.8743 65.6979 71.2821 65.0048C70.6899 64.3118 69.8934 63.8254 69.0077 63.6159C67.379 63.182 65.7008 62.9632 64.0155 62.9649H54.0312L53.9313 74.3822ZM124.97 88.3534H98.0123V89.9558C98.1369 90.9957 98.4232 92.0095 98.861 92.9604C99.4173 94.1256 100.25 95.1365 101.285 95.9046C102.321 96.6728 103.528 97.1749 104.802 97.3671C106.284 97.6734 107.813 97.6734 109.295 97.3671C110.357 97.1646 111.36 96.7208 112.225 96.0699C113.09 95.4189 113.796 94.5779 114.287 93.6114C114.328 93.5152 114.399 93.4345 114.488 93.3806C114.578 93.3267 114.682 93.3023 114.786 93.3109H124.571C124.571 93.8117 124.571 94.3124 124.221 94.7631C123.624 96.6316 122.617 98.3425 121.276 99.7707C118.586 102.824 114.874 104.783 110.842 105.279C107.632 105.809 104.346 105.638 101.207 104.778C97.9488 103.913 94.9828 102.183 92.6208 99.7707C90.7704 97.754 89.5246 95.2547 89.0264 92.5598C87.9611 87.783 88.1677 82.8092 89.6255 78.1379C90.4635 75.0924 92.1724 72.3597 94.5411 70.2773C96.9099 68.195 99.8347 66.854 102.955 66.4202C107.061 65.6077 111.315 66.0257 115.185 67.622C118.706 69.1149 121.551 71.8619 123.173 75.3337C124.245 77.6415 124.823 80.1491 124.87 82.6948V88.2533C125.02 88.1531 125.02 88.2532 124.97 88.3534V88.3534ZM114.986 81.9437V80.8921C114.821 79.5577 114.297 78.2935 113.47 77.2349C112.643 76.1764 111.545 75.3634 110.293 74.883C108.912 74.3452 107.425 74.1394 105.95 74.2821C104.539 74.3067 103.167 74.7471 102.004 75.5485C100.841 76.3499 99.939 77.4768 99.4101 78.7889C99.0924 79.5549 98.8255 80.3411 98.6114 81.1425C98.5942 81.4594 98.5942 81.777 98.6114 82.0939L114.986 81.9437ZM96.1652 62.1136V56.1045H116.933V62.0636L96.1652 62.1136Z" fill="white"/>
</svg>
