<svg width="166" height="160" viewBox="0 0 166 160" fill="none" xmlns="http://www.w3.org/2000/svg">
<path fill-rule="evenodd" clip-rule="evenodd" d="M85.7852 0.0360206C101.496 -0.682995 115.271 9.49381 128.538 18.7928C142.692 28.7146 159.881 37.6645 164.714 55.3621C169.527 72.985 159.777 90.8775 152.791 107.595C146.594 122.426 138.989 136.503 126.876 145.912C114.885 155.225 100.348 161.615 85.7852 159.641C71.9985 157.773 63.7442 142.784 51.4371 135.689C35.8671 126.713 13.2706 129.457 4.4181 112.735C-4.44637 95.9896 1.49371 73.5912 9.39468 56.2707C16.6576 40.3489 32.0889 32.492 45.5382 22.5914C58.3669 13.1476 70.3688 0.741563 85.7852 0.0360206Z" fill="#608AF5"/>
<path d="M83 39.3613C73.1062 39.3617 63.5353 42.8826 55.9999 49.294C48.4645 55.7054 43.4563 64.5889 41.8714 74.355C40.2866 84.1211 42.2284 94.1325 47.3496 102.598C52.4708 111.063 60.4371 117.43 69.823 120.559C71.9064 120.924 72.6876 119.674 72.6876 118.58C72.6876 117.59 72.6355 114.309 72.6355 110.82C62.1667 112.747 59.4584 108.268 58.625 105.924C57.7003 103.644 56.2345 101.624 54.3542 100.038C52.8959 99.2572 50.8125 97.3301 54.3021 97.2781C55.6345 97.4227 56.9125 97.8863 58.0277 98.6297C59.1428 99.3732 60.0624 100.374 60.7084 101.549C61.2782 102.573 62.0445 103.474 62.9633 104.201C63.8821 104.928 64.9353 105.467 66.0627 105.786C67.19 106.105 68.3692 106.199 69.5329 106.062C70.6965 105.925 71.8216 105.559 72.8437 104.986C73.0241 102.868 73.9681 100.888 75.5 99.4135C66.2292 98.3719 56.5417 94.778 56.5417 78.8406C56.4831 74.6996 58.0112 70.693 60.8125 67.6427C59.5387 64.0436 59.6878 60.0939 61.2292 56.601C61.2292 56.601 64.7187 55.5072 72.6875 60.8719C79.5054 58.9968 86.703 58.9968 93.5209 60.8719C101.49 55.4552 104.979 56.601 104.979 56.601C106.521 60.0938 106.67 64.0436 105.396 67.6427C108.206 70.6878 109.735 74.6978 109.667 78.8406C109.667 94.8301 99.927 98.3719 90.6563 99.4135C91.6507 100.421 92.4165 101.631 92.9018 102.961C93.3871 104.292 93.5805 105.71 93.4688 107.122C93.4688 112.695 93.4167 117.174 93.4167 118.58C93.4167 119.674 94.1979 120.976 96.2812 120.559C105.651 117.405 113.594 111.023 118.693 102.553C123.793 94.0835 125.716 84.0773 124.12 74.3206C122.525 64.564 117.513 55.692 109.981 49.2885C102.449 42.8849 92.8863 39.3665 83 39.3613V39.3613Z" fill="white"/>
</svg>
