<svg width="166" height="160" viewBox="0 0 166 160" fill="none" xmlns="http://www.w3.org/2000/svg">
<path fill-rule="evenodd" clip-rule="evenodd" d="M85.7852 0.0360206C101.496 -0.682995 115.271 9.49381 128.538 18.7928C142.692 28.7146 159.881 37.6645 164.714 55.3621C169.527 72.985 159.777 90.8775 152.791 107.595C146.594 122.426 138.989 136.503 126.876 145.912C114.885 155.225 100.348 161.615 85.7852 159.641C71.9985 157.773 63.7442 142.784 51.4371 135.689C35.8671 126.713 13.2706 129.457 4.4181 112.735C-4.44637 95.9896 1.49371 73.5911 9.39468 56.2707C16.6576 40.3489 32.0889 32.492 45.5382 22.5914C58.3669 13.1476 70.3688 0.741563 85.7852 0.0360206Z" fill="#608AF5"/>
<path d="M52.9584 73.7501H44.625C43.52 73.7501 42.4602 74.189 41.6788 74.9704C40.8974 75.7518 40.4584 76.8117 40.4584 77.9167C40.4584 79.0218 40.8974 80.0816 41.6788 80.863C42.4602 81.6444 43.52 82.0834 44.625 82.0834H52.9584C54.0634 82.0834 55.1232 81.6444 55.9047 80.863C56.6861 80.0816 57.125 79.0218 57.125 77.9167C57.125 76.8117 56.6861 75.7518 55.9047 74.9704C55.1232 74.189 54.0634 73.7501 52.9584 73.7501ZM122.875 61.9167V61.6667C121.681 60.2075 120.173 59.0372 118.463 58.2435C116.753 57.4498 114.885 57.0532 113 57.0834H79.9584C76.8967 57.0559 73.9315 58.153 71.625 60.1667V60.1667C69.4709 62.0648 68.0546 64.6613 67.625 67.5001L63.9584 88.3334C63.6431 90.1325 63.7259 91.9789 64.201 93.7426C64.6761 95.5063 65.532 97.1444 66.7084 98.5417C67.8786 99.9344 69.3387 101.055 70.9867 101.825C72.6348 102.595 74.431 102.996 76.25 103H109.333C112.305 103.045 115.196 102.029 117.487 100.136C119.777 98.242 121.319 95.594 121.833 92.6667L125.5 71.8334C125.789 70.0888 125.704 68.3028 125.252 66.5934C124.799 64.8839 123.989 63.29 122.875 61.9167V61.9167ZM111.458 65.4167L97.2917 76.9167C96.4541 77.5918 95.3878 77.9167 94.3161 77.8235C93.2444 77.7303 92.2502 77.2262 91.5417 76.4167L81.8334 65.4167H111.458ZM113.458 91.1251C113.29 92.1034 112.777 92.9893 112.013 93.6233C111.25 94.2574 110.284 94.5978 109.292 94.5834H76.25C75.6449 94.5783 75.0482 94.4415 74.5014 94.1824C73.9545 93.9234 73.4706 93.5484 73.0834 93.0834C72.6951 92.6209 72.4121 92.0795 72.2538 91.4967C72.0955 90.914 72.0658 90.3038 72.1667 89.7084L75.5 70.8334L85.2917 81.9167C87.423 84.3391 90.4084 85.8435 93.6234 86.1153C96.8384 86.3871 100.034 85.4052 102.542 83.3751L116.875 71.6667L113.458 91.1251ZM57.125 57.0834H44.625C43.52 57.0834 42.4602 57.5224 41.6788 58.3038C40.8974 59.0852 40.4584 60.145 40.4584 61.2501C40.4584 62.3551 40.8974 63.4149 41.6788 64.1963C42.4602 64.9777 43.52 65.4167 44.625 65.4167H57.125C58.2301 65.4167 59.2899 64.9777 60.0713 64.1963C60.8527 63.4149 61.2917 62.3551 61.2917 61.2501C61.2917 60.145 60.8527 59.0852 60.0713 58.3038C59.2899 57.5224 58.2301 57.0834 57.125 57.0834Z" fill="white"/>
</svg>
