<svg width="166" height="160" viewBox="0 0 166 160" fill="none" xmlns="http://www.w3.org/2000/svg">
<path fill-rule="evenodd" clip-rule="evenodd" d="M85.7852 0.0360206C101.496 -0.682995 115.271 9.49381 128.538 18.7928C142.692 28.7146 159.881 37.6645 164.714 55.3621C169.527 72.985 159.777 90.8775 152.791 107.595C146.594 122.426 138.989 136.503 126.876 145.912C114.885 155.225 100.348 161.615 85.7852 159.641C71.9985 157.773 63.7442 142.784 51.4371 135.689C35.8671 126.713 13.2706 129.457 4.4181 112.735C-4.44637 95.9896 1.49371 73.5911 9.39468 56.2707C16.6576 40.3489 32.0889 32.492 45.5382 22.5914C58.3669 13.1476 70.3688 0.741563 85.7852 0.0360206Z" fill="#608AF5"/>
<path d="M114 84.1668C113.083 84.1668 112.125 83.8751 111.208 83.6668C109.352 83.2577 107.528 82.7146 105.75 82.0418C103.817 81.3386 101.692 81.3751 99.7847 82.1443C97.877 82.9135 96.3212 84.3611 95.4167 86.2084L94.5001 88.0834C90.4417 85.8258 86.7125 83.0219 83.4167 79.7501C80.1449 76.4543 77.341 72.7251 75.0834 68.6668L76.8334 67.5001C78.6807 66.5956 80.1283 65.0398 80.8975 63.1321C81.6667 61.2245 81.7033 59.0997 81.0001 57.1668C80.3385 55.3852 79.7956 53.5618 79.3751 51.7084C79.1667 50.7918 79.0001 49.8334 78.8751 48.8751C78.3691 45.9402 76.8318 43.2824 74.5401 41.3803C72.2485 39.4782 69.353 38.4568 66.3751 38.5001H53.8751C52.0794 38.4832 50.3011 38.8535 48.6613 39.5856C47.0216 40.3178 45.5588 41.3947 44.3727 42.7429C43.1865 44.0912 42.3048 45.6792 41.7875 47.3989C41.2702 49.1186 41.1296 50.9295 41.3751 52.7084C43.5948 70.1642 51.5668 86.3829 64.0319 98.8028C76.497 111.223 92.7447 119.136 110.208 121.292H111.792C114.864 121.296 117.831 120.169 120.125 118.125C121.443 116.946 122.496 115.501 123.214 113.885C123.933 112.269 124.3 110.519 124.292 108.75V96.2501C124.241 93.3559 123.187 90.5691 121.31 88.3654C119.433 86.1617 116.849 84.6777 114 84.1668V84.1668ZM116.083 109.167C116.083 109.758 115.956 110.343 115.712 110.882C115.467 111.421 115.111 111.901 114.667 112.292C114.203 112.696 113.658 112.998 113.07 113.177C112.481 113.357 111.861 113.41 111.25 113.333C95.6455 111.333 81.151 104.194 70.053 93.043C58.955 81.8922 51.8851 67.364 49.9584 51.7501C49.8921 51.1398 49.9502 50.5223 50.1292 49.9351C50.3083 49.3478 50.6045 48.803 51.0001 48.3334C51.3905 47.889 51.8711 47.5328 52.41 47.2885C52.9488 47.0442 53.5335 46.9175 54.1251 46.9168H66.6251C67.594 46.8952 68.5401 47.2121 69.3007 47.8129C70.0612 48.4137 70.5884 49.2608 70.7917 50.2084C70.9584 51.3473 71.1667 52.4723 71.4167 53.5834C71.8981 55.7799 72.5386 57.9383 73.3334 60.0418L67.5001 62.7501C67.0013 62.9789 66.5526 63.304 66.1799 63.7067C65.8071 64.1095 65.5176 64.5818 65.3278 65.0967C65.1381 65.6117 65.052 66.159 65.0744 66.7073C65.0968 67.2556 65.2273 67.794 65.4584 68.2918C71.4551 81.1366 81.7802 91.4618 94.6251 97.4584C95.6395 97.8752 96.7773 97.8752 97.7917 97.4584C98.3114 97.2726 98.7889 96.9853 99.1966 96.6134C99.6043 96.2414 99.9341 95.7922 100.167 95.2918L102.75 89.4584C104.904 90.2288 107.102 90.8688 109.333 91.3751C110.444 91.6251 111.569 91.8334 112.708 92.0001C113.656 92.2034 114.503 92.7307 115.104 93.4912C115.705 94.2517 116.022 95.1978 116 96.1668L116.083 109.167Z" fill="white"/>
</svg>
